<?xml version="1.0" encoding="UTF-8"?>
<svg version="1.1" xmlns="http://www.w3.org/2000/svg" width="2000" height="1500">
<path d="M0 0 C1.70964522 -0.00270034 3.41928924 -0.00627208 5.12893105 -0.01062447 C9.7967884 -0.02000641 14.46456693 -0.01710674 19.13242795 -0.01206893 C24.22242604 -0.00878395 29.31240792 -0.01710003 34.40240073 -0.02388728 C43.31374126 -0.03416795 52.22506007 -0.03703443 61.13640594 -0.03497505 C74.38869567 -0.03192001 87.64096143 -0.04026024 100.89324649 -0.0507243 C125.94303016 -0.07005149 150.99280604 -0.07569333 176.0425953 -0.07683842 C178.80318 -0.07696792 181.5637647 -0.0771038 184.3243494 -0.07724524 C185.00945585 -0.07727924 185.6945623 -0.07731325 186.40042955 -0.07734829 C201.60398431 -0.07816632 216.80753742 -0.08254979 232.01109131 -0.08755693 C238.27778748 -0.08961375 244.54448368 -0.09159385 250.81117988 -0.09358943 C251.50366867 -0.0938106 252.19615746 -0.09403178 252.90963076 -0.09425966 C292.57801847 -0.10690297 332.24640509 -0.11515844 371.91479492 -0.11424255 C373.39840625 -0.114211 374.88201757 -0.11417953 376.3656289 -0.11414814 C383.0635077 -0.11400138 389.76138651 -0.11382504 396.45926531 -0.11364037 C399.44580978 -0.11355812 402.43235425 -0.11347783 405.41889872 -0.11339774 C406.91371611 -0.11335695 408.4085335 -0.11331491 409.90335088 -0.11327162 C457.15000546 -0.11191175 504.39663004 -0.12653718 551.64327621 -0.15435219 C563.54433941 -0.16135481 575.44540263 -0.16829399 587.34646606 -0.17488098 C588.0793623 -0.17528673 588.81225854 -0.17569248 589.56736376 -0.17611052 C612.1754809 -0.188551 634.78359558 -0.19607368 657.391716 -0.19859695 C658.45728056 -0.19871681 658.45728056 -0.19871681 659.54437167 -0.19883908 C675.14303491 -0.20054608 690.741698 -0.20106787 706.34036132 -0.20049833 C711.92266827 -0.20030538 717.50497522 -0.20020128 723.08728218 -0.20014087 C724.47590267 -0.20012504 725.86452316 -0.20010463 727.25314366 -0.20007962 C749.32931839 -0.19972777 771.40546734 -0.21109077 793.48163469 -0.22838725 C816.3542944 -0.24621661 839.22692273 -0.24929447 862.0995883 -0.235763 C875.26880398 -0.22839143 888.43790691 -0.23197807 901.60711056 -0.25164768 C910.42175274 -0.26369647 919.23631375 -0.26100245 928.05095228 -0.24670668 C933.06145027 -0.23898484 938.071731 -0.2372716 943.08221319 -0.25362138 C981.60768789 -0.37098257 1017.33552079 3.79549018 1053.43429184 18.25726891 C1054.60484116 18.72471519 1054.60484116 18.72471519 1055.79903793 19.20160484 C1088.10090934 32.32228762 1115.37477318 53.20753396 1139.93429184 77.63226891 C1140.52186264 78.21516685 1141.10943344 78.7980648 1141.71480942 79.39862633 C1144.13114163 81.82404381 1146.39394029 84.20591929 1148.51241684 86.90180016 C1150.67104809 89.54743967 1152.99594511 91.46901796 1155.68429184 93.56976891 C1159.93667538 96.97393765 1163.81636141 100.51596905 1167.60226059 104.42523766 C1169.3293024 106.15227947 1171.11176628 107.70661595 1172.99679184 109.25726891 C1176.11050754 111.88228483 1178.74802396 114.72392649 1181.37569809 117.83148766 C1182.91849578 119.64947128 1184.49454827 121.43932209 1186.08663559 123.21430016 C1226.95279142 169.04659125 1246.81290223 228.55328497 1246.80489731 289.35468102 C1246.80923908 293.02516791 1246.84558895 296.6944177 1246.88351059 300.36469078 C1247.13539259 353.28383658 1230.59026049 404.48170276 1199.43429184 447.25726891 C1199.01679672 447.83315758 1198.59930161 448.40904625 1198.16915512 449.00238609 C1192.6183261 456.59872093 1186.56563653 463.56109389 1180.09835434 470.38226891 C1177.4536632 473.16408877 1177.4536632 473.16408877 1175.30538559 475.93305016 C1173.60565898 478.04440158 1171.9397948 479.7072891 1169.87179184 481.44476891 C1166.61707444 484.21486845 1163.48741471 487.08173612 1160.37179184 490.00726891 C1124.4103593 522.66360408 1076.95858841 542.24216342 1029.24679184 549.00726891 C1028.44177231 549.12296227 1027.63675278 549.23865562 1026.80733871 549.35785484 C1011.16864644 551.38509273 995.32579398 551.40288451 979.58402824 551.35647869 C977.69029138 551.35472784 975.79655405 551.35343755 973.90281658 551.35256659 C968.82199766 551.34902435 963.74120737 551.33936589 958.66039935 551.32859464 C953.2423088 551.31826989 947.82421337 551.31392533 942.40611565 551.30905229 C933.43994937 551.30040306 924.47379182 551.28878426 915.50763178 551.27517152 C903.511758 551.25728108 891.51589772 551.24921568 879.5200119 551.24595261 C878.6054114 551.24568707 877.69081089 551.24542154 876.74849522 551.24514796 C873.06575697 551.24407992 869.38301872 551.24303323 865.70028044 551.24205885 C855.32841836 551.23919955 844.95655832 551.23324771 834.58469772 551.2271328 C832.64303392 551.22599977 830.70137011 551.22486681 828.7597063 551.22373392 C824.7936791 551.2214103 820.8276519 551.21906269 816.86162472 551.21670306 C810.5514565 551.21295749 804.24128822 551.2093494 797.93111992 551.2057476 C745.8887257 551.17593827 693.84633709 551.1402718 641.80395126 551.09828758 C640.5695507 551.09729202 639.33515014 551.09629645 638.0633435 551.09527071 C610.09192588 551.07267676 582.12050905 551.0492246 554.14909287 551.02491775 C542.47332594 551.01478653 530.79755891 551.00477859 519.12179184 550.99481773 C517.83229317 550.99371517 516.5427945 550.9926126 515.21422012 550.99147663 C473.19614603 550.95561995 431.17807285 550.9297226 389.15998886 550.90887922 C345.74012623 550.88728971 302.32028138 550.85595361 258.90043509 550.81227778 C252.77233808 550.80611747 246.64424098 550.80006694 240.5161438 550.79408264 C239.31058319 550.79290176 238.10502258 550.79172088 236.86292983 550.79050421 C217.52390541 550.77184351 198.18488957 550.7633806 178.84585724 550.75880766 C159.45192728 550.75400109 140.0580301 550.73832508 120.66411774 550.71160325 C109.16403635 550.69608436 97.66401969 550.68879623 86.16392842 550.69349961 C78.47236436 550.69582119 70.78086124 550.68721114 63.08931639 550.6699448 C58.7167924 550.66043442 54.34440309 550.65544359 49.97187375 550.66387328 C27.45383555 550.70325676 5.43432799 549.86168949 -16.56570816 544.56976891 C-17.64126968 544.3141317 -18.71683121 544.05849449 -19.8249855 543.7951107 C-57.42357259 534.53756926 -92.25816106 516.53853957 -121.56570816 491.25726891 C-122.31078629 490.62305016 -123.05586441 489.98883141 -123.82352066 489.33539391 C-133.81703343 480.59530478 -142.97924909 470.91878734 -152.30789566 461.48383141 C-154.60935744 459.21422377 -156.96977102 457.03780069 -159.37820816 454.88226891 C-160.25090347 454.09980797 -161.12359879 453.31734703 -162.02273941 452.51117516 C-164.18693927 450.59298265 -166.37104459 448.70281696 -168.56570816 446.81976891 C-177.110643 439.3408018 -184.53048467 431.15129726 -191.56570816 422.25726891 C-192.42626835 421.20922716 -193.28829719 420.16238994 -194.15164566 419.11664391 C-218.21061493 389.68270593 -233.34655919 354.89231504 -242.56570816 318.25726891 C-242.74327652 317.568265 -242.92084488 316.87926109 -243.1037941 316.16937828 C-259.28361428 251.93723193 -246.36493273 177.84509133 -212.87479019 121.39789391 C-202.84955112 105.00451528 -190.86914089 90.08375644 -177.56570816 76.25726891 C-177.01511734 75.67944664 -176.46452652 75.10162437 -175.89725113 74.50629234 C-168.2175591 66.47802166 -160.26449296 59.22141918 -151.34988785 52.58832359 C-149.53698901 51.2358435 -147.74245573 49.86133448 -145.94852066 48.48383141 C-104.40129279 16.91500258 -52.04105846 -0.14420886 0 0 Z " fill="#CDB9FE" transform="translate(500.5657081604004,474.74273109436035)"/>
<path d="M0 0 C4.14670197 1.66069375 7.06766932 4.65943614 10.25 7.6875 C11.41320185 8.78086426 12.57726139 9.87331679 13.7421875 10.96484375 C14.30260742 11.49062012 14.86302734 12.01639648 15.44042969 12.55810547 C17.37263399 14.34451727 19.36529149 16.05159928 21.375 17.75 C24.53070913 20.49324092 27.28175341 23.41462395 29.9765625 26.609375 C31.50513361 28.4153316 33.06875131 30.191705 34.6484375 31.953125 C75.51820635 77.78364765 95.37861044 137.2956469 95.37060547 198.09741211 C95.37494724 201.76789901 95.41129711 205.4371488 95.44921875 209.10742188 C95.70110075 262.02656768 79.15596865 313.22443385 48 356 C47.58250488 356.57588867 47.16500977 357.15177734 46.73486328 357.74511719 C41.18403426 365.34145203 35.13134469 372.30382498 28.6640625 379.125 C26.01937136 381.90681987 26.01937136 381.90681987 23.87109375 384.67578125 C22.17136714 386.78713267 20.50550296 388.45002019 18.4375 390.1875 C15.1827826 392.95759955 12.05312287 395.82446722 8.9375 398.75 C-27.02393254 431.40633517 -74.47570343 450.98489452 -122.1875 457.75 C-122.99251953 457.86569336 -123.79753906 457.98138672 -124.62695312 458.10058594 C-140.26564539 460.12782382 -156.10849786 460.14561561 -171.8502636 460.09920979 C-173.74400046 460.09745893 -175.63773779 460.09616864 -177.53147526 460.09529769 C-182.61229418 460.09175545 -187.69308446 460.08209699 -192.77389249 460.07132573 C-198.19198304 460.06100098 -203.61007846 460.05665642 -209.02817619 460.05178338 C-217.99434247 460.04313415 -226.96050002 460.03151536 -235.92666006 460.01790261 C-247.92253384 460.00001217 -259.91839411 459.99194677 -271.91427994 459.9886837 C-272.82888044 459.98841817 -273.74348095 459.98815263 -274.68579662 459.98787905 C-278.36853487 459.98681101 -282.05127312 459.98576432 -285.7340114 459.98478995 C-296.10587348 459.98193065 -306.47773352 459.97597881 -316.84959412 459.96986389 C-318.79125792 459.96873086 -320.73292173 459.96759791 -322.67458554 459.96646502 C-326.64061274 459.96414139 -330.60663994 459.96179378 -334.57266712 459.95943415 C-340.88283534 459.95568858 -347.19300362 459.95208049 -353.50317192 459.9484787 C-405.54556614 459.91866936 -457.58795475 459.88300289 -509.63034058 459.84101868 C-510.86474114 459.84002311 -512.0991417 459.83902754 -513.37094834 459.83800181 C-541.34236596 459.81540785 -569.31378279 459.79195569 -597.28519897 459.76764885 C-608.9609659 459.75751762 -620.63673293 459.74750968 -632.3125 459.73754883 C-634.246748 459.73589498 -634.246748 459.73589498 -636.22007172 459.73420772 C-678.23814581 459.69835104 -720.25621899 459.67245369 -762.27430298 459.65161031 C-805.69416561 459.6300208 -849.11401046 459.5986847 -892.53385675 459.55500887 C-898.66195375 459.54884856 -904.79005086 459.54279803 -910.91814804 459.53681374 C-912.12370865 459.53563285 -913.32926926 459.53445197 -914.57136201 459.53323531 C-933.91038643 459.51457461 -953.24940227 459.50611169 -972.5884346 459.50153876 C-991.98236456 459.49673218 -1011.37626174 459.48105617 -1030.7701741 459.45433434 C-1042.27025549 459.43881545 -1053.77027215 459.43152733 -1065.27036342 459.43623071 C-1072.96192748 459.43855228 -1080.6534306 459.42994223 -1088.34497545 459.41267589 C-1092.71749944 459.40316551 -1097.08988875 459.39817469 -1101.46241809 459.40660437 C-1123.98045629 459.44598786 -1145.99996385 458.60442058 -1168 453.3125 C-1169.07556152 453.05686279 -1170.15112305 452.80122559 -1171.25927734 452.5378418 C-1208.85179583 443.28179457 -1243.70176661 425.28605493 -1273 400 C-1274.15242188 399.01386719 -1274.15242188 399.01386719 -1275.328125 398.0078125 C-1280.95966872 393.06622612 -1286.30029367 387.82990742 -1291.625 382.5625 C-1292.34905029 381.85150146 -1293.07310059 381.14050293 -1293.8190918 380.40795898 C-1294.48980713 379.73837158 -1295.16052246 379.06878418 -1295.8515625 378.37890625 C-1296.45822754 377.7763501 -1297.06489258 377.17379395 -1297.68994141 376.55297852 C-1299 375 -1299 375 -1299 373 C-1295.93990142 374.45652289 -1293.1488414 376.14769541 -1290.3125 378 C-1262.26112246 395.94243697 -1232.69089674 409.73322592 -1200 416.75 C-1199.08831055 416.94875732 -1198.17662109 417.14751465 -1197.23730469 417.35229492 C-1182.01768195 420.44850872 -1166.66386349 421.3004631 -1151.17308712 421.25168228 C-1149.45948778 421.25377515 -1147.74588933 421.2567425 -1146.03229281 421.26049101 C-1141.36285203 421.26821037 -1136.69349501 421.2636558 -1132.02405574 421.25693511 C-1126.92903344 421.25182975 -1121.8340233 421.25839412 -1116.73900276 421.26342177 C-1107.82226399 421.27062459 -1098.90554946 421.27043869 -1089.98880959 421.26532745 C-1076.72911933 421.2577475 -1063.46944945 421.26163775 -1050.20975932 421.26774407 C-1027.89695721 421.27765618 -1005.58416304 421.278039 -983.2713604 421.27259064 C-982.25364103 421.27234225 -982.25364103 421.27234225 -981.21536168 421.27208885 C-980.53578677 421.27192299 -979.85621187 421.27175713 -979.15604378 421.27158624 C-958.4297377 421.26653445 -937.70343555 421.26523961 -916.97712898 421.26763153 C-915.58773833 421.26778649 -914.19834767 421.2679408 -912.80895702 421.26809447 C-907.22520176 421.26871544 -901.6414465 421.26935277 -896.05769124 421.270014 C-880.45010516 421.27184776 -864.84251907 421.27298915 -849.2349329 421.27358627 C-848.16895153 421.27362721 -848.16895153 421.27362721 -847.08143517 421.27366897 C-824.44644008 421.27448719 -801.81144635 421.27223551 -779.17645168 421.26788712 C-778.07568455 421.26767637 -778.07568455 421.26767637 -776.9526797 421.26746136 C-765.03645405 421.26517163 -753.12022844 421.26273263 -741.20400282 421.26028102 C-693.94402218 421.25056826 -646.68405286 421.25102005 -599.42407227 421.26074219 C-587.51258311 421.26318468 -575.60109395 421.26560682 -563.68960476 421.26788712 C-562.95611655 421.26802801 -562.22262833 421.26816891 -561.4669132 421.26831407 C-538.85403327 421.272628 -516.24115429 421.2744547 -493.62827396 421.27358627 C-492.91815888 421.2735591 -492.2080438 421.27353194 -491.47641007 421.27350394 C-475.88660963 421.27287892 -460.29680928 421.27161152 -444.70700893 421.26976527 C-439.12864186 421.26910702 -433.55027479 421.26848085 -427.97190771 421.26786385 C-426.58422667 421.26770907 -425.19654563 421.26755161 -423.80886459 421.26739145 C-403.0887727 421.26500668 -382.36868524 421.26703245 -361.6485939 421.27208885 C-360.97003153 421.27225444 -360.29146915 421.27242003 -359.59234428 421.27259064 C-358.57638838 421.27283868 -358.57638838 421.27283868 -357.53990811 421.27309174 C-334.67104596 421.27861415 -311.80219291 421.27656309 -288.93333178 421.26602915 C-275.75515988 421.26015904 -262.57701501 421.2597697 -249.39884381 421.2673215 C-240.5923412 421.27181113 -231.78586023 421.26900632 -222.97936082 421.26031196 C-217.96457251 421.25556226 -212.94983784 421.25391137 -207.93505125 421.26112393 C-203.36387717 421.26763123 -198.79280383 421.26477303 -194.22163695 421.2547626 C-192.58712925 421.25276511 -190.95261302 421.25403549 -189.31811218 421.25917448 C-174.70371735 421.30182527 -160.24207123 420.10435779 -145.875 417.3125 C-144.58831421 417.06258301 -144.58831421 417.06258301 -143.27563477 416.80761719 C-87.01318523 405.34178598 -31.72841982 373.37080295 2.69677734 326.76074219 C4.04850483 324.93446668 5.42312589 323.12708921 6.80078125 321.3203125 C13.17326536 312.8914789 18.82710695 304.21001264 24 295 C24.42780762 294.25073242 24.85561523 293.50146484 25.29638672 292.72949219 C41.94522727 263.34072143 51.0965721 231.40688124 55 198 C55.1045752 197.11320557 55.20915039 196.22641113 55.31689453 195.31274414 C57.85879385 169.95513846 58.01997479 142.00438528 53 117 C52.80664062 115.96568848 52.61328125 114.93137695 52.4140625 113.86572266 C44.95658443 74.43200568 28.42218215 33.51863494 1.11254883 3.45410156 C0 2 0 2 0 0 Z " fill="#7F4EEE" transform="translate(1652,566)"/>
<path d="M0 0 C59.07 0 118.14 0 179 0 C179 45.37496689 179 45.37496689 159.125 71.3125 C153.97104266 78.05395535 148.8858295 84.83905996 143.875 91.6875 C138.80684954 98.6106551 133.60665236 105.41370351 128.31542969 112.16748047 C123.38096397 118.47750736 118.5628412 124.86937294 113.77709961 131.29272461 C110.39848864 135.82208263 106.98916656 140.32376065 103.53125 144.79296875 C102.79567871 145.74647217 102.06010742 146.69997559 101.30224609 147.68237305 C99.87823291 149.52522304 98.44906862 151.36410705 97.01416016 153.19848633 C96.37269043 154.03017334 95.7312207 154.86186035 95.0703125 155.71875 C94.50070801 156.45029297 93.93110352 157.18183594 93.34423828 157.93554688 C91.7246151 160.17753836 91.7246151 160.17753836 91 164 C120.7 164 150.4 164 181 164 C181 182.48 181 200.96 181 220 C118.3 220 55.6 220 -9 220 C-9 175.1316166 -9 175.1316166 11.23046875 149.546875 C14.1530325 145.82705991 16.98612554 142.04314519 19.8125 138.25 C25.89337709 130.09207046 32.14207203 122.07000794 38.40283203 114.04980469 C41.85132631 109.6240086 45.26818033 105.17393494 48.68115234 100.72070312 C49.61853057 99.49770391 50.55640845 98.27508759 51.49462891 97.05273438 C58.03750162 88.52747789 64.55045203 79.98251018 70.95458984 71.35229492 C73.15355548 68.40166177 75.38326966 65.52267293 77.78125 62.73046875 C80.14694376 60.1472592 80.14694376 60.1472592 81 57 C56.25 57 31.5 57 6 57 C3.69023667 43.14142 3.69023667 43.14142 2.9296875 36.26953125 C2.84373322 35.50879807 2.75777893 34.74806488 2.66921997 33.96427917 C2.49120163 32.37912201 2.31484223 30.79377766 2.14013672 29.20825195 C1.87421758 26.80543009 1.59947482 24.4037212 1.32421875 22.00195312 C1.15050805 20.44537196 0.97731306 18.88873313 0.8046875 17.33203125 C0.72346649 16.62867142 0.64224548 15.92531158 0.55856323 15.20063782 C0.00142737 10.04501638 0 5.26059386 0 0 Z " fill="#7F4EEE" transform="translate(914,621)"/>
<path d="M0 0 C3.27756052 1.26073874 6.37144083 2.65329102 9.45703125 4.328125 C10.30934326 4.79065674 11.16165527 5.25318848 12.03979492 5.72973633 C12.9547876 6.23142334 13.86978027 6.73311035 14.8125 7.25 C16.26523315 8.04410278 16.26523315 8.04410278 17.74731445 8.85424805 C25.80681487 13.28732906 33.74874728 17.90701911 41.67626953 22.57080078 C50.41352874 27.69593036 59.25354472 32.62232992 68.11914062 37.52124023 C75.95078208 41.85160409 83.74337155 46.24354881 91.50073242 50.70556641 C99.30444935 55.19214261 107.15255176 59.58581037 115 64 C115 85.45 115 106.9 115 129 C107.41 133.29 99.82 137.58 92 142 C87.18504638 144.74589651 82.37171858 147.49413953 77.5625 150.25 C69.06453921 155.11378323 60.55663284 159.95826038 52.015625 164.74609375 C46.98237311 167.56796041 41.96059037 170.41009911 36.9375 173.25 C35.49600586 174.06380127 35.49600586 174.06380127 34.02539062 174.89404297 C28.83758553 177.82400115 23.65657987 180.76523583 18.484375 183.72265625 C17.43000244 184.32368164 16.37562988 184.92470703 15.28930664 185.54394531 C13.25265274 186.70518269 11.21791673 187.86979158 9.18530273 189.03808594 C8.27208252 189.55790039 7.3588623 190.07771484 6.41796875 190.61328125 C5.61125732 191.07516846 4.8045459 191.53705566 3.97338867 192.01293945 C2 193 2 193 0 193 C-7.59 177.82 -15.18 162.64 -23 147 C-19.24560704 143.99648563 -16.12324698 141.82051291 -11.9765625 139.56640625 C-11.40229523 139.25215698 -10.82802795 138.93790771 -10.23635864 138.61413574 C-8.3681788 137.59269571 -6.49657891 136.57769609 -4.625 135.5625 C-1.99612111 134.12732655 0.63085811 132.68869234 3.2578125 131.25 C3.91535522 130.89043716 4.57289795 130.53087433 5.25036621 130.16041565 C11.28529398 126.85580359 17.27169624 123.46838038 23.25 120.0625 C29.84386448 116.3119295 36.46771865 112.6452111 43.1875 109.125 C48.1584513 106.51530944 53.10957367 103.88340733 58 101.125 C58.94875 100.59132813 59.8975 100.05765625 60.875 99.5078125 C63.29250717 98.10698814 63.29250717 98.10698814 64 95 C63.2766748 94.72325439 62.55334961 94.44650879 61.80810547 94.16137695 C59.12213209 93.05051142 56.62451062 91.80229571 54.0703125 90.41796875 C53.12244873 89.90508301 52.17458496 89.39219727 51.19799805 88.86376953 C50.18390869 88.31060059 49.16981934 87.75743164 48.125 87.1875 C47.05999268 86.6085498 45.99498535 86.02959961 44.89770508 85.43310547 C36.85265242 81.04511084 28.8621685 76.56566666 20.89501953 72.03808594 C11.97846174 66.97300483 3.01588369 61.99308671 -5.9543457 57.02392578 C-11.32251011 54.04897266 -16.68205878 51.06392877 -22 48 C-21.48608111 42.06232551 -18.977605 37.44326497 -16.30859375 32.2265625 C-15.84389175 31.3028183 -15.37918976 30.3790741 -14.90040588 29.42733765 C-13.42026348 26.48937161 -11.92906965 23.55717833 -10.4375 20.625 C-9.42960341 18.62927734 -8.42243358 16.63318747 -7.41601562 14.63671875 C-4.95241535 9.75352631 -2.4797272 4.87502105 0 0 Z " fill="#7F4EEE" transform="translate(1164,635)"/>
<path d="M0 0 C2.387743 2.18116633 3.82146035 4.26416206 5.26831055 7.1484375 C5.68851974 7.97939941 6.10872894 8.81036133 6.54167175 9.66650391 C7.20747002 11.00720947 7.20747002 11.00720947 7.88671875 12.375 C8.34859085 13.29587402 8.81046295 14.21674805 9.28633118 15.16552734 C10.26000219 17.11082962 11.23064956 19.05764784 12.19848633 21.00585938 C13.68393925 23.99283997 15.18209005 26.97320158 16.68164062 29.953125 C17.62576993 31.84336563 18.56915486 33.73397829 19.51171875 35.625 C19.96165695 36.51880371 20.41159515 37.41260742 20.87516785 38.33349609 C21.49129692 39.57993896 21.49129692 39.57993896 22.11987305 40.8515625 C22.48388718 41.58197754 22.84790131 42.31239258 23.22294617 43.06494141 C24 45 24 45 24 48 C23.45400146 48.29543701 22.90800293 48.59087402 22.34545898 48.89526367 C10.87979349 55.10647787 -0.5314989 61.40101817 -11.86816406 67.84472656 C-17.40876847 70.98757699 -22.96657123 74.09633089 -28.546875 77.16796875 C-29.19156235 77.5228537 -29.83624969 77.87773865 -30.50047302 78.24337769 C-33.65808813 79.98035843 -36.8174509 81.7140878 -39.97875977 83.44433594 C-46.11051907 86.80810234 -52.16712828 90.24442036 -58.09838867 93.95336914 C-60 95 -60 95 -62 95 C-62 96.32 -62 97.64 -62 99 C-61.12867432 99.26699707 -60.25734863 99.53399414 -59.35961914 99.80908203 C-56.08403253 100.97021215 -53.27368553 102.35745859 -50.24609375 104.0546875 C-48.60846069 104.9684314 -48.60846069 104.9684314 -46.93774414 105.90063477 C-45.77093289 106.55864445 -44.60418625 107.21676871 -43.4375 107.875 C-42.22995134 108.55108404 -41.02218518 109.22677975 -39.81420898 109.90209961 C-31.48968888 114.5637393 -23.21337383 119.30819977 -14.94555664 124.06958008 C-10.64488197 126.53389821 -6.336216 128.89650271 -1.875 131.0625 C3.58807977 133.7264472 8.89471919 136.64029403 14.1875 139.625 C15.03908691 140.09301025 15.89067383 140.56102051 16.76806641 141.04321289 C17.56003418 141.49559326 18.35200195 141.94797363 19.16796875 142.4140625 C20.23954224 143.01661865 20.23954224 143.01661865 21.33276367 143.63134766 C23 145 23 145 23.85253906 146.91259766 C24.03697568 149.52341397 23.4557432 150.70403839 22.19140625 152.984375 C21.77777832 153.7470166 21.36415039 154.5096582 20.93798828 155.29541016 C20.25712158 156.51043213 20.25712158 156.51043213 19.5625 157.75 C18.63274126 159.4601916 17.70437741 161.1711422 16.77734375 162.8828125 C16.30925293 163.74036133 15.84116211 164.59791016 15.35888672 165.48144531 C13.37421534 169.15982654 11.48722234 172.88344179 9.625 176.625 C9.29894775 177.27887695 8.97289551 177.93275391 8.63696289 178.60644531 C6.28795114 183.34953671 4.08473541 188.13561738 2 193 C-4.01601693 191.36836812 -9.08164804 188.27990982 -14.4375 185.1875 C-16.50903446 184.00376602 -18.58065133 182.82017625 -20.65234375 181.63671875 C-21.7079248 181.03134277 -22.76350586 180.4259668 -23.85107422 179.80224609 C-28.72241486 177.0141986 -33.61152735 174.25785867 -38.5 171.5 C-40.42326196 170.41291056 -42.34643887 169.32567065 -44.26953125 168.23828125 C-48.03674606 166.10887474 -51.8050343 163.98138677 -55.57421875 161.85546875 C-66.29470895 155.80667032 -76.99879494 149.72974855 -87.6875 143.625 C-88.83307373 142.97104248 -89.97864746 142.31708496 -91.15893555 141.64331055 C-92.265354 141.01078369 -93.37177246 140.37825684 -94.51171875 139.7265625 C-95.47553467 139.17564941 -96.43935059 138.62473633 -97.43237305 138.05712891 C-97.95066681 137.74105179 -98.46896057 137.42497467 -99.00296021 137.09931946 C-101.12956054 135.88204136 -101.12956054 135.88204136 -104.03488159 134.733078 C-107.52083714 133.11073057 -110.17938198 131.6233182 -113 129 C-114.65203229 124.05576954 -114.40644958 119.24138143 -114.171875 114.09765625 C-114.14946506 112.65041673 -114.13239686 111.20308553 -114.12042236 109.75572205 C-114.07481103 105.96381876 -113.95717118 102.17751994 -113.82397461 98.38781738 C-113.70073403 94.51387376 -113.64631223 90.63901479 -113.5859375 86.76367188 C-113.4576152 79.17323813 -113.25311605 71.587407 -113 64 C-111.96073112 63.42030708 -111.96073112 63.42030708 -110.90046692 62.8289032 C-107.68946376 61.03691058 -104.47949514 59.24307228 -101.26953125 57.44921875 C-100.18031372 56.84170776 -99.09109619 56.23419678 -97.96887207 55.60827637 C-90.49116522 51.42723761 -83.07246322 47.15504946 -75.6875 42.8125 C-67.71800813 38.13659507 -59.69478361 33.5955524 -51.5769043 29.18286133 C-43.95087611 25.01789422 -36.46557987 20.62414078 -28.97460938 16.22216797 C-19.4200073 10.62381682 -9.73826781 5.27108254 0 0 Z " fill="#7F4EEE" transform="translate(836,635)"/>
<path d="M0 0 C0.62563323 0.73016437 0.62563323 0.73016437 1.26390553 1.47507954 C4.1891878 4.04453809 7.88710857 3.43879065 11.60229492 3.43237305 C12.48055435 3.4425647 13.35881378 3.45275635 14.26368713 3.46325684 C17.16934516 3.4934736 20.07467401 3.50266601 22.98046875 3.51171875 C24.99401452 3.528559 27.00754973 3.54670835 29.02107239 3.56611633 C34.32287295 3.61369344 39.62463072 3.64345293 44.92657471 3.66955566 C51.28681928 3.70455504 57.64689947 3.76158962 64.00701141 3.81494904 C73.67132042 3.89355329 83.33541294 3.94409076 93 4 C93 22.48 93 40.96 93 60 C30.3 60 -32.4 60 -97 60 C-97 45.48 -97 30.96 -97 16 C-96.34 15.67 -95.68 15.34 -95 15 C-95.00523682 16.06436279 -95.01047363 17.12872559 -95.01586914 18.2253418 C-95.0340105 22.18561966 -95.04546537 26.14589386 -95.05493164 30.10620117 C-95.05995099 31.81812152 -95.06676785 33.53003761 -95.07543945 35.24194336 C-95.08761021 37.70687922 -95.09325238 40.17175825 -95.09765625 42.63671875 C-95.10281754 43.39836838 -95.10797882 44.16001801 -95.11329651 44.94474792 C-95.11361605 47.99236736 -95.03182827 50.84129594 -94.43139648 53.83520508 C-94 56 -94 56 -95 59 C-33.62 59 27.76 59 91 59 C91 41.51 91 24.02 91 6 C89.68 6.33 88.36 6.66 87 7 C84.23741539 7.06131018 81.5040344 7.06752659 78.74316406 7.02172852 C77.49870766 7.0073172 77.49870766 7.0073172 76.22911072 6.99261475 C73.49119444 6.95967543 70.75344025 6.9193238 68.015625 6.87890625 C66.11562672 6.85460018 64.21562246 6.83075687 62.31561279 6.80735779 C57.31786287 6.74456531 52.32021883 6.67548493 47.3225708 6.60510254 C42.22160662 6.53437544 37.12056744 6.46958466 32.01953125 6.40429688 C22.0129384 6.27534687 12.00644737 6.13975512 2 6 C2 5.34 2 4.68 2 4 C1.01 3.67 0.02 3.34 -1 3 C-0.67 2.01 -0.34 1.02 0 0 Z " fill="#855DE1" transform="translate(1002,781)"/>
<path d="M0 0 C59.07 0 118.14 0 179 0 C179 14.85 179 29.7 179 45 C176.525 47.475 176.525 47.475 174 50 C174.66 48.35 175.32 46.7 176 45 C176 31.14 176 17.28 176 3 C118.91 3 61.82 3 3 3 C3 8.94 3 14.88 3 21 C2.67 21 2.34 21 2 21 C1.65686132 19.18933073 1.32607982 17.37631899 1 15.5625 C0.814375 14.55316406 0.62875 13.54382813 0.4375 12.50390625 C-0.07922142 8.36552132 0 4.17051926 0 0 Z " fill="#8B64E6" transform="translate(914,621)"/>
<path d="M0 0 C3.06009858 1.45652289 5.8511586 3.14769541 8.6875 5 C20.10377836 12.31069162 31.74255463 19.1901126 44 25 C43.34 25.66 42.68 26.32 42 27 C41.401875 26.649375 40.80375 26.29875 40.1875 25.9375 C37.89186786 24.66695302 37.89186786 24.66695302 35 26 C35.495 26.99 35.495 26.99 36 28 C35.67 28.66 35.34 29.32 35 30 C35.66 30 36.32 30 37 30 C37.495 32.97 37.495 32.97 38 36 C27.10015525 28.93200614 17.87272313 20.06614593 8.6875 10.9375 C7.83260986 10.09179443 6.97771973 9.24608887 6.09692383 8.37475586 C5.30568115 7.57948486 4.51443848 6.78421387 3.69921875 5.96484375 C2.98596436 5.2493335 2.27270996 4.53382324 1.5378418 3.79663086 C0 2 0 2 0 0 Z " fill="#7D53E0" transform="translate(353,939)"/>
<path d="M0 0 C1.51232874 3.02465748 1.10081762 6.14304565 1.0625 9.45703125 C1.05871338 10.19700851 1.05492676 10.93698578 1.05102539 11.6993866 C1.03467175 14.86842578 1.00664087 18.03733662 0.97949219 21.20629883 C0.96135494 23.51903685 0.94928925 25.83175353 0.9375 28.14453125 C0.92920166 28.85615921 0.92090332 29.56778717 0.91235352 30.30097961 C0.89801687 33.22572077 0.98605539 35.93098021 1.56640625 38.8034668 C2 41 2 41 1 44 C62.38 44 123.76 44 187 44 C187 42.02 187 40.04 187 38 C187.33 38 187.66 38 188 38 C188 40.31 188 42.62 188 45 C125.63 45 63.26 45 -1 45 C-1 1 -1 1 0 0 Z " fill="#7B53DC" transform="translate(906,796)"/>
<path d="M0 0 C4.14670197 1.66069375 7.06766932 4.65943614 10.25 7.6875 C11.41320185 8.78086426 12.57726139 9.87331679 13.7421875 10.96484375 C14.30260742 11.49062012 14.86302734 12.01639648 15.44042969 12.55810547 C17.37263399 14.34451727 19.36529149 16.05159928 21.375 17.75 C25.32291506 21.15192681 28.67388782 24.99827128 32 29 C31.01 29.33 30.02 29.66 29 30 C28.34 29.01 27.68 28.02 27 27 C24.06644453 25.19970518 24.06644453 25.19970518 21 24 C20.34 24.33 19.68 24.66 19 25 C14.75426997 20.98970787 11.28704094 16.62319118 7.8125 11.9375 C7.27947266 11.23044922 6.74644531 10.52339844 6.19726562 9.79492188 C3.82211203 6.61311234 1.70049829 3.60143555 0 0 Z " fill="#7D52E2" transform="translate(1652,566)"/>
<path d="M0 0 C0.66 0 1.32 0 2 0 C2.474375 0.61875 2.94875 1.2375 3.4375 1.875 C9.9978745 7.31531056 21.09112375 6.32526359 29.23046875 6.4140625 C30.90511955 6.44311172 30.90511955 6.44311172 32.61360168 6.4727478 C36.13815962 6.5319633 39.66275126 6.57869471 43.1875 6.625 C45.59441436 6.66323328 48.00131581 6.70228802 50.40820312 6.7421875 C56.2720199 6.83761627 62.13591602 6.92282899 68 7 C65.4437436 9.5562564 63.7495409 9.25807543 60.26231384 9.3031311 C59.47063309 9.30235565 58.67895233 9.3015802 57.86328125 9.30078125 C57.03997818 9.30628998 56.21667511 9.31179871 55.36842346 9.31747437 C52.68294441 9.32922563 49.99798012 9.32282762 47.3125 9.3125 C46.40284485 9.31134186 45.4931897 9.31018372 44.55596924 9.30899048 C30.51993386 9.27345739 16.81820922 8.65039241 3 6 C1.86763916 5.7839209 1.86763916 5.7839209 0.71240234 5.56347656 C-3.21395393 4.79510598 -7.11285284 3.94989211 -11 3 C-11 2.67 -11 2.34 -11 2 C-7.7 2.33 -4.4 2.66 -1 3 C-0.67 2.01 -0.34 1.02 0 0 Z " fill="#7550CD" transform="translate(494,1016)"/>
<path d="M0 0 C0.33 0.99 0.66 1.98 1 3 C0.19175781 3.39832031 -0.61648438 3.79664063 -1.44921875 4.20703125 C-2.51785156 4.73683594 -3.58648438 5.26664063 -4.6875 5.8125 C-5.74324219 6.33457031 -6.79898438 6.85664062 -7.88671875 7.39453125 C-9.42779297 8.18923828 -9.42779297 8.18923828 -11 9 C-11.87586761 9.40657837 -12.75173523 9.81315674 -13.65414429 10.23205566 C-16.24971106 11.79780311 -16.24971106 11.79780311 -16.63491821 14.65637207 C-16.63889618 15.72432007 -16.64287415 16.79226807 -16.64697266 17.89257812 C-16.66273346 19.10393433 -16.67849426 20.31529053 -16.69473267 21.56335449 C-16.68461151 22.87276001 -16.67449036 24.18216553 -16.6640625 25.53125 C-16.66743086 26.88741491 -16.67228364 28.24357687 -16.67855835 29.59973145 C-16.68592908 32.44129187 -16.67521978 35.28206616 -16.65185547 38.12353516 C-16.62336509 41.76592828 -16.63976835 45.4064797 -16.66971779 49.04880524 C-16.68778684 51.84903846 -16.68203511 54.64883504 -16.66907883 57.44908142 C-16.66412162 59.44494828 -16.67930587 61.44083211 -16.69473267 63.43664551 C-16.67897186 64.64800171 -16.66321106 65.85935791 -16.64697266 67.10742188 C-16.64299469 68.17536987 -16.63901672 69.24331787 -16.63491821 70.34362793 C-16.25595367 73.24188387 -16.25595367 73.24188387 -13.45956421 74.74328613 C-12.64790802 75.15800171 -11.83625183 75.57271729 -11 76 C-11 76.66 -11 77.32 -11 78 C-15.75 76.125 -15.75 76.125 -18 75 C-18 53.55 -18 32.1 -18 10 C-12.06 6.7 -6.12 3.4 0 0 Z " fill="#7D54DC" transform="translate(741,689)"/>
<path d="M0 0 C3 4 3 4 3 16 C27.09 16 51.18 16 76 16 C76 16.33 76 16.66 76 17 C51.58 17 27.16 17 2 17 C0 5 0 5 0 0 Z " fill="#8A64E7" transform="translate(918,661)"/>
<path d="M0 0 C0.66 0.66 1.32 1.32 2 2 C1.38125 2.226875 0.7625 2.45375 0.125 2.6875 C-2.1915139 3.82160182 -2.1915139 3.82160182 -2.859375 6.2421875 C-4.22165169 9.53591129 -6.06366 11.73069817 -8.375 14.4375 C-12.34461205 19.18198033 -15.87070078 23.78322745 -18.6875 29.3125 C-21.4964664 34.34849553 -25.86448176 38.06106449 -30 42 C-31.33676238 43.32989545 -32.67120435 44.66214438 -34 46 C-32.65736611 42.13566793 -30.98076777 39.52252578 -28.3125 36.4375 C-23.81599812 31.08244275 -19.61157415 25.54686439 -15.4375 19.9375 C-10.41007114 13.18947049 -5.35109279 6.49653438 0 0 Z " fill="#8158E1" transform="translate(984,694)"/>
<path d="M0 0 C0.66 0.33 1.32 0.66 2 1 C1.34 1.99 0.68 2.98 0 4 C-0.66 4 -1.32 4 -2 4 C-2.268125 5.093125 -2.53625 6.18625 -2.8125 7.3125 C-4.39583333 12.22916667 -4.39583333 12.22916667 -7 14 C-7.99 14 -8.98 14 -10 14 C-10.268125 14.804375 -10.53625 15.60875 -10.8125 16.4375 C-11.204375 17.283125 -11.59625 18.12875 -12 19 C-12.99 19.33 -13.98 19.66 -15 20 C-15 20.66 -15 21.32 -15 22 C-16.609375 23.55078125 -16.609375 23.55078125 -18.75 25.3125 C-21.25848256 27.42792807 -23.21424512 29.27375766 -25.25 31.875 C-27.22266956 34.27038446 -28.06597342 34.43016839 -31 35 C-27.7966714 31.0848206 -24.47377154 27.44994959 -20.84228516 23.92431641 C-14.70370945 17.95816159 -9.35590657 11.6496214 -4.1796875 4.8359375 C-2 2 -2 2 0 0 Z " fill="#7F56E1" transform="translate(1658,889)"/>
<path d="M0 0 C0.99 0.33 1.98 0.66 3 1 C3.1157928 9.42304643 3.20466267 17.84576103 3.25906086 26.26940632 C3.28516804 30.18078511 3.32058464 34.09161989 3.37719727 38.00268555 C3.43147998 41.77635741 3.4614121 45.54950572 3.47438622 49.32353783 C3.4836331 50.76413405 3.50169059 52.20470123 3.52865028 53.64507484 C3.56487938 55.66064184 3.56704183 57.67673447 3.56762695 59.69262695 C3.57873001 60.84068314 3.58983307 61.98873932 3.60127258 63.17158508 C3 66 3 66 0.58952332 67.89421082 C-2 69 -2 69 -4 69 C-4 68.01 -4 67.02 -4 66 C-1.525 65.01 -1.525 65.01 1 64 C1.33 44.86 1.66 25.72 2 6 C1.34 5.67 0.68 5.34 0 5 C0 3.35 0 1.7 0 0 Z " fill="#7D54D7" transform="translate(1276,698)"/>
<path d="M0 0 C1.97975721 0.28763088 3.95877608 0.58034466 5.9375 0.875 C7.59072266 1.11863281 7.59072266 1.11863281 9.27734375 1.3671875 C11.91459854 1.81549314 14.41257737 2.33518226 17 2.96875 C23.60078512 4.47048996 30.33549864 4.97517631 37.0625 5.625 C38.41866933 5.75991963 39.77478967 5.89533264 41.13085938 6.03125 C44.42012554 6.35900606 47.70979907 6.68178888 51 7 C51 7.33 51 7.66 51 8 C48.50053822 8.22446623 46.0017844 8.42982533 43.5 8.625 C42.80390625 8.68945312 42.1078125 8.75390625 41.390625 8.8203125 C37.0029117 9.1453283 33.45613008 8.77927623 29.17382812 7.56103516 C24.85645432 6.44678033 20.41315413 5.9715367 16 5.375 C15.03449219 5.2409375 14.06898438 5.106875 13.07421875 4.96875 C10.71665124 4.64195846 8.35861476 4.31912927 6 4 C6 3.34 6 2.68 6 2 C4.35 2 2.7 2 1 2 C0.67 1.34 0.34 0.68 0 0 Z " fill="#825AE1" transform="translate(442,981)"/>
<path d="M0 0 C0.99 0.99 1.98 1.98 3 3 C2.67 3.66 2.34 4.32 2 5 C0.68 4.34 -0.64 3.68 -2 3 C-2.33 3.99 -2.66 4.98 -3 6 C-5.1953125 7.0703125 -5.1953125 7.0703125 -8.125 8.125 C-14.22231045 10.50676189 -19.57880902 13.58263826 -25.09814453 17.05322266 C-29.81573179 20 -29.81573179 20 -32 20 C-32 19.34 -32 18.68 -32 18 C-31.20827393 17.56131592 -30.41654785 17.12263184 -29.60083008 16.6706543 C-26.6465058 15.03316404 -23.69261679 13.39489393 -20.73901367 11.75610352 C-19.46379509 11.04876202 -18.18840686 10.34172625 -16.9128418 9.63500977 C-15.07295098 8.61556226 -13.23368538 7.59499456 -11.39453125 6.57421875 C-10.28956299 5.96151123 -9.18459473 5.34880371 -8.04614258 4.7175293 C-5.33495829 3.18886203 -2.65951811 1.61648497 0 0 Z " fill="#8259DF" transform="translate(836,635)"/>
<path d="M0 0 C3.3131971 1.57845711 6.3944965 3.42126291 9.5 5.375 C10.4384375 5.96023438 11.376875 6.54546875 12.34375 7.1484375 C14.86829372 8.90819297 16.904396 10.75612213 19 13 C16.525 12.505 16.525 12.505 14 12 C14.33 13.32 14.66 14.64 15 16 C9.75715884 11.6309657 4.48058696 7.16722236 0 2 C0 1.34 0 0.68 0 0 Z " fill="#7852D4" transform="translate(353,939)"/>
<path d="M0 0 C0 0.66 0 1.32 0 2 C-1.28913487 2.67154933 -2.58140204 3.33708859 -3.875 4 C-4.59429688 4.37125 -5.31359375 4.7425 -6.0546875 5.125 C-8 6 -8 6 -10 6 C-10.33 6.99 -10.66 7.98 -11 9 C-12.65 9.66 -14.3 10.32 -16 11 C-14.68 14.96 -13.36 18.92 -12 23 C-12.66 23 -13.32 23 -14 23 C-15.98 18.71 -17.96 14.42 -20 10 C-17.04447033 8.32818524 -14.08583038 6.66237821 -11.125 5 C-10.28324219 4.52304687 -9.44148438 4.04609375 -8.57421875 3.5546875 C-7.76855469 3.10351562 -6.96289062 2.65234375 -6.1328125 2.1875 C-5.38918457 1.76855469 -4.64555664 1.34960938 -3.87939453 0.91796875 C-2 0 -2 0 0 0 Z " fill="#8057E1" transform="translate(1161,771)"/>
<path d="M0 0 C2.07691455 2.07691455 2.64572198 3.29882725 3.65625 6 C3.95587646 6.80074951 4.25550293 7.60149902 4.56420898 8.42651367 C4.87302002 9.27576416 5.18183105 10.12501465 5.5 11 C5.81461182 11.85762939 6.12922363 12.71525879 6.45336914 13.59887695 C8.52106231 19.35580163 10.10504181 24.93417225 11 31 C8.3144406 28.3144406 7.93950026 25.62378672 7 22 C5.35 21.67 3.7 21.34 2 21 C2 19 2 19 3 18 C3.44218777 12.47265293 2.26095107 8.99293362 0 4 C0 2.68 0 1.36 0 0 Z " fill="#724ED6" transform="translate(1727,664)"/>
<path d="M0 0 C0.625 1.8125 0.625 1.8125 1 4 C0.01 5.485 0.01 5.485 -1 7 C-1.70164642 8.98799818 -2.37372872 10.98698517 -3 13 C-3.66 13 -4.32 13 -5 13 C-5.66 15.31 -6.32 17.62 -7 20 C-7.66 20 -8.32 20 -9 20 C-9 21.32 -9 22.64 -9 24 C-9.66 24 -10.32 24 -11 24 C-11.061875 24.556875 -11.12375 25.11375 -11.1875 25.6875 C-12.33373872 28.94987173 -14.49390197 30.68667874 -17 33 C-15.26222715 28.13617765 -12.72483826 23.78977319 -10.1875 19.3125 C-6.61661968 12.95584475 -3.14240144 6.58250406 0 0 Z " fill="#8057E0" transform="translate(1687,840)"/>
<path d="M0 0 C0.66 0.33 1.32 0.66 2 1 C-3.75 6 -3.75 6 -6 6 C-6.33 6.66 -6.66 7.32 -7 8 C-8.65 8 -10.3 8 -12 8 C-12 8.66 -12 9.32 -12 10 C-13.28913487 10.67154933 -14.58140204 11.33708859 -15.875 12 C-16.59429688 12.37125 -17.31359375 12.7425 -18.0546875 13.125 C-20 14 -20 14 -22 14 C-22 14.66 -22 15.32 -22 16 C-24.31 16.33 -26.62 16.66 -29 17 C-23.85135689 12.95167793 -18.06879994 9.95435826 -12.375 6.75 C-11.20568687 6.08080307 -10.03641561 5.41153297 -8.8671875 4.7421875 C-7.76375 4.12085938 -6.6603125 3.49953125 -5.5234375 2.859375 C-4.51200684 2.28670898 -3.50057617 1.71404297 -2.45849609 1.12402344 C-1.64719238 0.7530957 -0.83588867 0.38216797 0 0 Z " fill="#8057E0" transform="translate(778,668)"/>
<path d="M0 0 C1.4854985 0.00212242 1.4854985 0.00212242 3.00100708 0.00428772 C6.14914023 0.00986373 9.29720102 0.02241183 12.4453125 0.03515625 C14.58593647 0.04017435 16.72656156 0.04473671 18.8671875 0.04882812 C24.10158699 0.05982531 29.33594457 0.0765395 34.5703125 0.09765625 C34.5703125 0.42765625 34.5703125 0.75765625 34.5703125 1.09765625 C33.34401123 1.1227124 32.11770996 1.14776855 30.85424805 1.17358398 C26.3087298 1.26768679 21.76336333 1.36790058 17.21801758 1.4699707 C15.24995471 1.51330866 13.28185452 1.55498457 11.3137207 1.5949707 C8.4863764 1.6527007 5.65921979 1.71638741 2.83203125 1.78125 C1.95069016 1.79796249 1.06934906 1.81467499 0.16130066 1.83189392 C-1.0696357 1.86181175 -1.0696357 1.86181175 -2.32543945 1.89233398 C-3.04713821 1.90787827 -3.76883698 1.92342255 -4.5124054 1.93943787 C-6.65076894 2.03960882 -6.65076894 2.03960882 -9.4296875 3.09765625 C-11.770294 2.81995717 -14.10593058 2.49225648 -16.4296875 2.09765625 C-16.4296875 1.76765625 -16.4296875 1.43765625 -16.4296875 1.09765625 C-10.9297299 -0.05917617 -5.58992022 -0.03026286 0 0 Z " fill="#CABEEC" transform="translate(493.4296875,474.90234375)"/>
<path d="M0 0 C8.57142857 0.85714286 8.57142857 0.85714286 12 3 C11.375 4.9375 11.375 4.9375 10 7 C6.875 7.75 6.875 7.75 4 8 C0 2.25 0 2.25 0 0 Z " fill="#804DEE" transform="translate(374,957)"/>
<path d="M0 0 C5.80936405 1.84199348 11.70445993 3.94488073 17 7 C17.33 7.66 17.66 8.32 18 9 C19.88013106 10.12224855 19.88013106 10.12224855 22.0625 11.125 C22.79597656 11.47820313 23.52945313 11.83140625 24.28515625 12.1953125 C25.13400391 12.59363281 25.13400391 12.59363281 26 13 C26 13.66 26 14.32 26 15 C22.444218 13.65788025 19.20894833 12.07755303 15.91796875 10.1796875 C14.98662109 9.64472656 14.05527344 9.10976563 13.09570312 8.55859375 C12.13599609 8.00300781 11.17628906 7.44742188 10.1875 6.875 C9.20845703 6.31167969 8.22941406 5.74835937 7.22070312 5.16796875 C4.81210445 3.78155585 2.40528605 2.39214945 0 1 C0 0.67 0 0.34 0 0 Z " fill="#8159DE" transform="translate(746,776)"/>
<path d="M0 0 C0.99 0 1.98 0 3 0 C3.66 0.66 4.32 1.32 5 2 C0.33183385 3.76989367 -4.34052327 5.52754398 -9.02099609 7.26464844 C-10.65749827 7.87273437 -12.29192181 8.48641115 -13.92578125 9.1015625 C-17.73248003 10.4706945 -20.13064982 11.24127384 -24 10 C-20.86501708 8.14223235 -18.62528568 7.79859524 -15 8 C-15 7.34 -15 6.68 -15 6 C-14.16855469 5.81824219 -13.33710937 5.63648438 -12.48046875 5.44921875 C-11.39378906 5.19785156 -10.30710937 4.94648437 -9.1875 4.6875 C-7.56908203 4.32205078 -7.56908203 4.32205078 -5.91796875 3.94921875 C-2.96938787 2.99004184 -2.04200363 2.18917506 0 0 Z " fill="#724FCE" transform="translate(1587,1005)"/>
<path d="M0 0 C5.04395895 3.51548654 8.37975847 8.11736877 12 13 C11.67 13.66 11.34 14.32 11 15 C6.92248817 14.04858057 5.43010963 13.64516445 3 10 C3.375 7.8125 3.375 7.8125 4 6 C3.01 5.67 2.02 5.34 1 5 C0.67 3.35 0.34 1.7 0 0 Z " fill="#7A52DC" transform="translate(1687,600)"/>
<path d="M0 0 C0.33 0.99 0.66 1.98 1 3 C0.2884375 3.556875 0.2884375 3.556875 -0.4375 4.125 C-2.27976037 5.99127353 -2.27976037 5.99127353 -2.375 9.0625 C-2.58125 10.031875 -2.7875 11.00125 -3 12 C-5.5 13.25 -5.5 13.25 -8 14 C-8.33 14.66 -8.66 15.32 -9 16 C-9.66 16 -10.32 16 -11 16 C-11.33 16.99 -11.66 17.98 -12 19 C-12.66 18.67 -13.32 18.34 -14 18 C-13.24074219 17.03578125 -12.48148438 16.0715625 -11.69921875 15.078125 C-10.69528885 13.80210194 -9.69138391 12.52605924 -8.6875 11.25 C-8.18798828 10.61578125 -7.68847656 9.9815625 -7.17382812 9.328125 C-4.74794301 6.24355585 -2.33433646 3.15493938 0 0 Z " fill="#8157E3" transform="translate(931,763)"/>
<path d="M0 0 C5.59085785 0.58851135 11.06222629 2.30328743 16 5 C16.33 5.99 16.66 6.98 17 8 C19.00016466 9.20882096 19.00016466 9.20882096 21 10 C20.67 10.66 20.34 11.32 20 12 C13.4 8.37 6.8 4.74 0 1 C0 0.67 0 0.34 0 0 Z " fill="#8258E1" transform="translate(1199,714)"/>
<path d="M0 0 C2.31 0.66 4.62 1.32 7 2 C6.67 2.99 6.34 3.98 6 5 C6.66 5.33 7.32 5.66 8 6 C9.34919532 7.65385233 10.68133728 9.321702 12 11 C12.98230498 12.0173873 13.97469597 13.02596117 15 14 C14.67 14.66 14.34 15.32 14 16 C11.84797791 13.90185329 9.70336384 11.79697945 7.5625 9.6875 C6.95083984 9.09259766 6.33917969 8.49769531 5.70898438 7.88476562 C5.12568359 7.30791016 4.54238281 6.73105469 3.94140625 6.13671875 C3.40201416 5.60780029 2.86262207 5.07888184 2.30688477 4.53393555 C1 3 1 3 0 0 Z " fill="#CCBDF1" transform="translate(317,905)"/>
<path d="M0 0 C8.66044508 -0.49964106 8.66044508 -0.49964106 13 3 C15.67527995 3.56102958 18.26698199 3.7722485 21 4 C21 4.66 21 5.32 21 6 C21.99 6.33 22.98 6.66 24 7 C18.20140805 6.43189471 13.02313406 5.26320265 7.5 3.4375 C6.77296875 3.20353516 6.0459375 2.96957031 5.296875 2.72851562 C3.52919739 2.15867219 1.76429031 1.58024596 0 1 C0 0.67 0 0.34 0 0 Z " fill="#724FCF" transform="translate(459,1011)"/>
<path d="M0 0 C2 1 2 1 2.8046875 2.828125 C3 5 3 5 1.8203125 6.921875 C1.26085938 7.52515625 0.70140625 8.1284375 0.125 8.75 C-0.70644531 9.67039062 -0.70644531 9.67039062 -1.5546875 10.609375 C-3 12 -3 12 -4 12 C-4 4 -4 4 -2 1.8125 C-1.34 1.214375 -0.68 0.61625 0 0 Z " fill="#7A4EE1" transform="translate(1685,932)"/>
<path d="M0 0 C2.56616632 3.84924948 2.55097676 6.4349304 3 11 C3.66 10.67 4.32 10.34 5 10 C5 12.64 5 15.28 5 18 C4.01 18 3.02 18 2 18 C0.176679 11.84629161 -0.2361959 6.40353322 0 0 Z " fill="#8055E5" transform="translate(917,646)"/>
<path d="M0 0 C2.97 0.99 5.94 1.98 9 3 C9.33 2.01 9.66 1.02 10 0 C10.66 0 11.32 0 12 0 C11.125 4.75 11.125 4.75 10 7 C5.49197399 5.74194623 2.5087188 4.09592835 -1 1 C-0.67 0.67 -0.34 0.34 0 0 Z " fill="#8258E3" transform="translate(828,821)"/>
<path d="M0 0 C0.66 0 1.32 0 2 0 C2 0.99 2 1.98 2 3 C-2.93548051 7.38709378 -8.79323563 9.9686953 -15 12 C-15 11.34 -15 10.68 -15 10 C-14.00097656 9.44570313 -13.00195312 8.89140625 -11.97265625 8.3203125 C-10.66911089 7.58882662 -9.36573416 6.85704018 -8.0625 6.125 C-7.40314453 5.76019531 -6.74378906 5.39539063 -6.06445312 5.01953125 C-2.42063631 3.14582102 -2.42063631 3.14582102 0 0 Z " fill="#8056E1" transform="translate(1228,731)"/>
<path d="M0 0 C4.14032846 1.54385129 7.93553053 3.51028938 11.8125 5.625 C12.40998047 5.94984375 13.00746094 6.2746875 13.62304688 6.609375 C15.08337135 7.40379151 16.54187491 8.20155376 18 9 C17.34 9.66 16.68 10.32 16 11 C15.18015625 10.50628906 14.3603125 10.01257813 13.515625 9.50390625 C11.89914062 8.54291016 11.89914062 8.54291016 10.25 7.5625 C8.64898438 6.60537109 8.64898438 6.60537109 7.015625 5.62890625 C4.56515029 4.30526901 2.71008663 3.46702949 0 3 C-0.33 4.32 -0.66 5.64 -1 7 C-1.66 6.67 -2.32 6.34 -3 6 C-2.01 4.02 -1.02 2.04 0 0 Z " fill="#835BDD" transform="translate(1164,635)"/>
<path d="M0 0 C3.94144164 1.667533 6.98001951 3.98001951 10 7 C10.375 10.3125 10.375 10.3125 10 13 C6.40523299 9.50794062 3.07973809 5.95966325 0 2 C0 1.34 0 0.68 0 0 Z " fill="#8565D4" transform="translate(1652,566)"/>
<path d="M0 0 C7.10147296 3.49666435 14.12426899 7.0759717 21 11 C18 12 18 12 14.75 10.6015625 C13.4947926 9.9526841 12.24493006 9.29338458 11 8.625 C6.12340661 6.03872933 6.12340661 6.03872933 1 4 C0.3125 1.9375 0.3125 1.9375 0 0 Z " fill="#8259E2" transform="translate(835,767)"/>
<path d="M0 0 C1.65 0.33 3.3 0.66 5 1 C2.23612808 3.15178156 -0.56533069 4.98370421 -3.625 6.6875 C-4.40101563 7.12449219 -5.17703125 7.56148437 -5.9765625 8.01171875 C-8 9 -8 9 -10 9 C-9.67 8.01 -9.34 7.02 -9 6 C-8.01 6 -7.02 6 -6 6 C-5.67 5.01 -5.34 4.02 -5 3 C-3.35 2.67 -1.7 2.34 0 2 C0 1.34 0 0.68 0 0 Z " fill="#8057DF" transform="translate(798,713)"/>
<path d="M0 0 C0 4.35815629 -1.79165322 7.54998387 -4.5625 10.875 C-6 12 -6 12 -8 12 C-8.33 12.99 -8.66 13.98 -9 15 C-9.66 15 -10.32 15 -11 15 C-9.44476633 11.50683117 -7.34563239 8.77131239 -4.9375 5.8125 C-4.22464844 4.93207031 -3.51179688 4.05164063 -2.77734375 3.14453125 C-1.88495567 2.06778168 -0.98887464 0.98887464 0 0 Z " fill="#C8BBEE" transform="translate(313,562)"/>
<path d="M0 0 C1.32 0.33 2.64 0.66 4 1 C3.67 1.99 3.34 2.98 3 4 C2.7226499 7.18490007 2.7226499 7.18490007 5 10 C1.78956118 8.61811547 -0.04936365 7.07578097 -2.25 4.375 C-2.77078125 3.74335937 -3.2915625 3.11171875 -3.828125 2.4609375 C-4.21484375 1.97882812 -4.6015625 1.49671875 -5 1 C-2.525 1.495 -2.525 1.495 0 2 C0 1.34 0 0.68 0 0 Z " fill="#754ED5" transform="translate(373,954)"/>
<path d="M0 0 C-1 3 -1 3 -2.671875 4.0625 C-3.35765625 4.371875 -4.0434375 4.68125 -4.75 5 C-7.25873097 6.16028807 -9.42882631 7.28263552 -11.75 8.8125 C-14.44825402 10.23657851 -15.19214076 9.867133 -18 9 C-16.89591797 8.40251953 -16.89591797 8.40251953 -15.76953125 7.79296875 C-14.79371094 7.26316406 -13.81789063 6.73335937 -12.8125 6.1875 C-11.84957031 5.66542969 -10.88664063 5.14335938 -9.89453125 4.60546875 C-7.99086293 3.54958794 -6.11141174 2.44859359 -4.26171875 1.30078125 C-2 0 -2 0 0 0 Z " fill="#8159E3" transform="translate(799,657)"/>
<path d="M0 0 C3.19624262 1.53837846 6.21605574 3.28866532 9.25 5.125 C10.14203125 5.66382813 11.0340625 6.20265625 11.953125 6.7578125 C12.96632813 7.37269531 12.96632813 7.37269531 14 8 C13.67 8.66 13.34 9.32 13 10 C10 10 10 10 8.625 8.6875 C8.08875 8.130625 7.5525 7.57375 7 7 C6.154375 6.525625 5.30875 6.05125 4.4375 5.5625 C1.84222021 3.89885911 1.07434297 2.83235875 0 0 Z " fill="#7F5BDB" transform="translate(353,939)"/>
<path d="M0 0 C0.33 0 0.66 0 1 0 C1.33608711 8.05364285 1.0517291 14.49783264 -2 22 C-3.04239682 18.87280954 -2.97104316 17.70741726 -2.44140625 14.55078125 C-2.30283203 13.70322266 -2.16425781 12.85566406 -2.02148438 11.98242188 C-1.87001953 11.10134766 -1.71855469 10.22027344 -1.5625 9.3125 C-1.41490234 8.41982422 -1.26730469 7.52714844 -1.11523438 6.60742188 C-0.74992619 4.40378863 -0.37795112 2.201494 0 0 Z " fill="#875FE6" transform="translate(1706,772)"/>
<path d="M0 0 C2.97 0.495 2.97 0.495 6 1 C4.55746343 4.36591866 2.66735273 6.51047079 0 9 C-0.95808288 5.4071892 -1.20508082 3.61524247 0 0 Z " fill="#794FD7" transform="translate(1692,922)"/>
<path d="M0 0 C0.33 0 0.66 0 1 0 C1 1.65 1 3.3 1 5 C0.01 5.33 -0.98 5.66 -2 6 C-2 6.66 -2 7.32 -2 8 C-2.66 8 -3.32 8 -4 8 C-4.309375 8.61875 -4.61875 9.2375 -4.9375 9.875 C-5.625 11.25 -6.3125 12.625 -7 14 C-7.66 14 -8.32 14 -9 14 C-7.65378455 10.19136032 -5.94641263 7.34590149 -3.4375 4.1875 C-2.81746094 3.39730469 -2.19742188 2.60710938 -1.55859375 1.79296875 C-0.78708984 0.90544922 -0.78708984 0.90544922 0 0 Z " fill="#845CE1" transform="translate(916,782)"/>
<path d="M0 0 C1.16161779 2.86578759 0.9946154 4.01630163 0.00390625 7.015625 C-0.70958984 8.61664062 -0.70958984 8.61664062 -1.4375 10.25 C-1.91058594 11.32765625 -2.38367187 12.4053125 -2.87109375 13.515625 C-3.24363281 14.33546875 -3.61617187 15.1553125 -4 16 C-4.66 16 -5.32 16 -6 16 C-5.52412884 9.97229862 -2.80277043 5.23321711 0 0 Z " fill="#835AE1" transform="translate(1148,667)"/>
<path d="M0 0 C-5.28 2.97 -10.56 5.94 -16 9 C-16.33 8.34 -16.66 7.68 -17 7 C-16.34 7 -15.68 7 -15 7 C-15 6.34 -15 5.68 -15 5 C-13.06891037 3.96709159 -11.129882 2.94901328 -9.1875 1.9375 C-8.10855469 1.36902344 -7.02960938 0.80054688 -5.91796875 0.21484375 C-3 -1 -3 -1 0 0 Z " fill="#815ADF" transform="translate(1258,776)"/>
<path d="M0 0 C1 2 1 2 0.9375 4.3125 C-0.41891295 8.20088378 -2.75620368 9.49957367 -6 12 C-6.33 12.66 -6.66 13.32 -7 14 C-7.66 13.67 -8.32 13.34 -9 13 C-6.03 8.71 -3.06 4.42 0 0 Z " fill="#835AE3" transform="translate(1669,873)"/>
<path d="M0 0 C-1.5117416 4.23287649 -4.3322614 5.63125215 -8 8 C-8.99 9.485 -8.99 9.485 -10 11 C-10.66 11 -11.32 11 -12 11 C-10.5611898 7.612801 -8.77880501 5.6405896 -6 3.25 C-5.29875 2.63640625 -4.5975 2.0228125 -3.875 1.390625 C-2 0 -2 0 0 0 Z " fill="#C8BBEE" transform="translate(350,528)"/>
<path d="M0 0 C1.32 0 2.64 0 4 0 C2.44298069 4.67105792 -0.08447373 8.08705685 -3 12 C-3.62109375 10.125 -3.62109375 10.125 -4 8 C-2.68799596 6.64567325 -1.35368596 5.31266518 0 4 C0 2.68 0 1.36 0 0 Z " fill="#7753CC" transform="translate(1705,907)"/>
<path d="M0 0 C0.66 0.33 1.32 0.66 2 1 C-0.64 4.63 -3.28 8.26 -6 12 C-6.33 11.01 -6.66 10.02 -7 9 C-7.66 8.67 -8.32 8.34 -9 8 C-7.88625 7.690625 -7.88625 7.690625 -6.75 7.375 C-3.20768823 5.60384411 -1.97553159 3.36572049 0 0 Z " fill="#7F54E1" transform="translate(1025,752)"/>
<path d="M0 0 C0.33 0.99 0.66 1.98 1 3 C-3.75 6.875 -3.75 6.875 -6 8 C-6.99 7.34 -7.98 6.68 -9 6 C-6.03 4.02 -3.06 2.04 0 0 Z " fill="#845AE7" transform="translate(1601,943)"/>
<path d="M0 0 C2 2 2 2 2 5 C-4.75 9 -4.75 9 -7 9 C-6.67 7.68 -6.34 6.36 -6 5 C-4.35 5 -2.7 5 -1 5 C-0.67 3.35 -0.34 1.7 0 0 Z " fill="#7F56E1" transform="translate(858,678)"/>
<path d="M0 0 C0.66 0.33 1.32 0.66 2 1 C-3.0940919 7.70459519 -3.0940919 7.70459519 -6.875 8.9375 C-7.57625 8.958125 -8.2775 8.97875 -9 9 C-6 6 -3 3 0 0 Z " fill="#7F57DD" transform="translate(1623,926)"/>
<path d="M0 0 C0.66 0 1.32 0 2 0 C-0.89066059 9.59453303 -0.89066059 9.59453303 -4 13 C-4 11.02 -4 9.04 -4 7 C-3.34 6.67 -2.68 6.34 -2 6 C-1.27306096 4.02111039 -0.60183749 2.02045442 0 0 Z " fill="#6E4CCE" transform="translate(1725,873)"/>
<path d="M0 0 C3.4375 1.3125 3.4375 1.3125 7 3 C7.33 3.99 7.66 4.98 8 6 C7.01 6.495 7.01 6.495 6 7 C6 6.34 6 5.68 6 5 C4.68 5 3.36 5 2 5 C1.34 3.35 0.68 1.7 0 0 Z " fill="#7F4EF0" transform="translate(366,950)"/>
<path d="M0 0 C3.3 1.65 6.6 3.3 10 5 C10 5.33 10 5.66 10 6 C7.69 6 5.38 6 3 6 C2.67 5.01 2.34 4.02 2 3 C1.34 2.67 0.68 2.34 0 2 C0 1.34 0 0.68 0 0 Z " fill="#8258E5" transform="translate(1200,655)"/>
<path d="M0 0 C2.93200474 2.85276137 5.64315404 5.65079784 8 9 C6.0625 8.625 6.0625 8.625 4 8 C3.67 7.34 3.34 6.68 3 6 C0.98330173 4.86649466 0.98330173 4.86649466 -1 4 C-0.67 2.68 -0.34 1.36 0 0 Z " fill="#7A56D1" transform="translate(1676,587)"/>
<path d="M0 0 C1.30660357 4.29727397 0.6596762 7.60215865 0 12 C-0.66 12 -1.32 12 -2 12 C-3.12377697 8.69564916 -2.89554742 6.9493138 -1.5625 3.75 C-1.27503906 3.04359375 -0.98757813 2.3371875 -0.69140625 1.609375 C-0.46324219 1.07828125 -0.23507812 0.5471875 0 0 Z " fill="#8057E2" transform="translate(1692,827)"/>
<path d="M0 0 C0.99 0 1.98 0 3 0 C2.34 3.96 1.68 7.92 1 12 C0.67 12 0.34 12 0 12 C0 8.04 0 4.08 0 0 Z " fill="#6F4AD3" transform="translate(1739,826)"/>
<path d="M0 0 C3.26460973 1.80412643 4.88929795 2.83394693 7 6 C5.35 6.33 3.7 6.66 2 7 C1.34 4.69 0.68 2.38 0 0 Z " fill="#7A56D5" transform="translate(1669,581)"/>
<path d="M0 0 C0.66 0 1.32 0 2 0 C3.60355101 3.50776784 4.22036864 6.14354879 4 10 C3.01 10.495 3.01 10.495 2 11 C1.34 7.37 0.68 3.74 0 0 Z " fill="#CABDEF" transform="translate(259,794)"/>
<path d="M0 0 C1.65 0 3.3 0 5 0 C1.80009492 2.74277578 -1.00499382 4.6302836 -5 6 C-5 5.01 -5 4.02 -5 3 C-4.360625 2.87625 -3.72125 2.7525 -3.0625 2.625 C-2.0415625 2.315625 -2.0415625 2.315625 -1 2 C-0.67 1.34 -0.34 0.68 0 0 Z " fill="#8158E3" transform="translate(1267,767)"/>
<path d="M0 0 C1 4 1 4 0.1875 6.0625 C-0.83619809 7.73274425 -1.91334336 9.37001504 -3 11 C-3.66 10.67 -4.32 10.34 -5 10 C-3.35 6.7 -1.7 3.4 0 0 Z " fill="#875CE2" transform="translate(1154,655)"/>
<path d="M0 0 C1.62723299 0.45034123 3.25173664 0.91055354 4.875 1.375 C5.77992188 1.63023437 6.68484375 1.88546875 7.6171875 2.1484375 C10 3 10 3 12 5 C9 6 9 6 6.9921875 5.29296875 C6.29351562 4.92816406 5.59484375 4.56335938 4.875 4.1875 C4.17117188 3.83042969 3.46734375 3.47335937 2.7421875 3.10546875 C1 2 1 2 0 0 Z " fill="#8158E4" transform="translate(406,969)"/>
<path d="M0 0 C0.33 0 0.66 0 1 0 C0.67 2.31 0.34 4.62 0 7 C-1.65 7.33 -3.3 7.66 -5 8 C-3.38731308 5.28775382 -1.75098126 2.62647188 0 0 Z " fill="#845AE5" transform="translate(942,748)"/>
<path d="M0 0 C2.8125 -0.3125 2.8125 -0.3125 6 0 C7.875 2.5 7.875 2.5 9 5 C5.54074837 3.7508258 2.85306797 2.32472205 0 0 Z " fill="#835AE4" transform="translate(1158,691)"/>
<path d="M0 0 C3.3 1.65 6.6 3.3 10 5 C6 6 6 6 3.75 5.0625 C3.1725 4.711875 2.595 4.36125 2 4 C2 3.34 2 2.68 2 2 C1.34 2 0.68 2 0 2 C0 1.34 0 0.68 0 0 Z " fill="#8257E2" transform="translate(1186,647)"/>
<path d="M0 0 C3.77545388 1.09068668 6.47043472 1.9083091 9 5 C6.23723823 4.47731534 3.6739124 3.89130413 1 3 C0.67 2.01 0.34 1.02 0 0 Z " fill="#8159DD" transform="translate(1259,689)"/>
<path d="M0 0 C0.99 0.33 1.98 0.66 3 1 C-0.465 3.97 -0.465 3.97 -4 7 C-4 6.01 -4 5.02 -4 4 C-3.34 4 -2.68 4 -2 4 C-2 3.01 -2 2.02 -2 1 C-1.34 0.67 -0.68 0.34 0 0 Z " fill="#754FCE" transform="translate(1669,953)"/>
<path d="M0 0 C0.598125 0.165 1.19625 0.33 1.8125 0.5 C4.11344336 1.1114124 4.11344336 1.1114124 7 1 C7.33 2.32 7.66 3.64 8 5 C1.125 2.25 1.125 2.25 0 0 Z " fill="#C5ACF9" transform="translate(856,778)"/>
<path d="M0 0 C3.66881155 0.70554068 6.70450534 2.27735506 10 4 C6.19881294 5.26706235 4.6149628 4.57172296 1 3 C0.67 2.01 0.34 1.02 0 0 Z " fill="#8158DE" transform="translate(808,753)"/>
<path d="M0 0 C0.66 0.33 1.32 0.66 2 1 C1.625 3.4375 1.625 3.4375 1 6 C0.01 6.495 0.01 6.495 -1 7 C-1.66 6.67 -2.32 6.34 -3 6 C-3 4.68 -3 3.36 -3 2 C-2.01 1.34 -1.02 0.68 0 0 Z " fill="#C8AAFE" transform="translate(777,728)"/>
<path d="M0 0 C0.66 0.33 1.32 0.66 2 1 C0.70700306 3.88437779 -0.65941363 5.87219421 -3 8 C-2.45276317 4.62537285 -1.9451 2.91765 0 0 Z " fill="#8159DE" transform="translate(1053,714)"/>
<path d="M0 0 C2.72426311 2.35277269 3.8141763 4.62496331 5 8 C1.59575156 6.86525052 0.78346291 6.03188696 -1 3 C-0.67 2.01 -0.34 1.02 0 0 Z " fill="#7751CF" transform="translate(1712,635)"/>
<path d="M0 0 C1.65 1.65 3.3 3.3 5 5 C4.67 5.66 4.34 6.32 4 7 C1.83125748 6.49396008 0.00032373 6.00016187 -2 5 C-1.34 3.35 -0.68 1.7 0 0 Z " fill="#704CD2" transform="translate(1694,608)"/>
<path d="M0 0 C1.32 0 2.64 0 4 0 C4 0.66 4 1.32 4 2 C5.65 2.33 7.3 2.66 9 3 C9 3.66 9 4.32 9 5 C5.22454612 3.90931332 2.52956528 3.0916909 0 0 Z " fill="#7755CB" transform="translate(412,989)"/>
<path d="M0 0 C-1 3 -1 3 -2.84765625 3.94921875 C-3.57855469 4.19285156 -4.30945312 4.43648437 -5.0625 4.6875 C-6.16271484 5.06455078 -6.16271484 5.06455078 -7.28515625 5.44921875 C-7.85105469 5.63097656 -8.41695312 5.81273437 -9 6 C-9 5.34 -9 4.68 -9 4 C-2.25 0 -2.25 0 0 0 Z " fill="#7F56E0" transform="translate(1588,953)"/>
<path d="M0 0 C1.46726798 3.81489674 0.43336419 6.29011622 -1 10 C-1.33 10 -1.66 10 -2 10 C-2 7.36 -2 4.72 -2 2 C-1.34 2 -0.68 2 0 2 C0 1.34 0 0.68 0 0 Z " fill="#7551CD" transform="translate(1737,841)"/>
<path d="M0 0 C0.6875 1.625 0.6875 1.625 1 4 C-0.4375 7.25 -0.4375 7.25 -2 10 C-3.60920937 6.78158126 -2.0749168 4.28446801 -1 1 C-0.67 0.67 -0.34 0.34 0 0 Z " fill="#7D56DD" transform="translate(845,807)"/>
<path d="M0 0 C0 0.99 0 1.98 0 3 C-4.43076923 5.09230769 -4.43076923 5.09230769 -7.3125 4.625 C-7.869375 4.41875 -8.42625 4.2125 -9 4 C-2.25 0 -2.25 0 0 0 Z " fill="#C8ADFD" transform="translate(847,690)"/>
<path d="M0 0 C2.79872437 2.52788007 4.45773019 4.20411134 5 8 C2.525 7.01 2.525 7.01 0 6 C0 4.02 0 2.04 0 0 Z " fill="#7354CC" transform="translate(1704,622)"/>
</svg>
